# xmcd
#
# Track frame offsets: 
#        150
#        26053
#        45012
#        81554
#        115699
#        153041
#        157236
#        185659
#        212926
#        251980
#        283989
#        318191
#
# Disc length: 4587 seconds
#
# Revision: 1
# Processed by: cddbd v1.5.2PL0 Copyright (c) Steve Scherf et al.
# Submitted via: ExactAudioCopy v1.0b3
#
DISCID=a911e90c
DTITLE=Tropical Deep - Jazz for the Dancefloor [CD2)
DYEAR=2014
DGENRE=Jazz
TTITLE0=The Warm Up (Just Groovin)
TTITLE1=Diggin On My Styles
TTITLE2=Minds Eye
TTITLE3=Transcend - The Body - The Soul
TTITLE4=The Organ Grinder
TTITLE5=Samba Groove
TTITLE6=Submerged
TTITLE7=Just Trippin
TTITLE8=Running From Time
TTITLE9=Bring It Back
TTITLE10=Fade 3 Black
TTITLE11=Just Groovin (Reprise)
EXTD=YEAR: 2005
EXTT0=
EXTT1=
EXTT2=
EXTT3=
EXTT4=
EXTT5=
EXTT6=
EXTT7=
EXTT8=
EXTT9=
EXTT10=
EXTT11=
PLAYORDER=
